<svg width="16" height="18" viewBox="0 0 16 18" fill="none" xmlns="http://www.w3.org/2000/svg">
<path d="M15.1 11.6751L13.6 10.1668V6.45012C13.62 5.06997 13.1399 3.72921 12.2484 2.6754C11.357 1.62158 10.1144 0.925895 8.75 0.716782C7.95817 0.612505 7.15322 0.678294 6.38883 0.909762C5.62445 1.14123 4.91822 1.53305 4.31727 2.05908C3.71631 2.58512 3.23445 3.23326 2.90384 3.96028C2.57322 4.68729 2.40146 5.47646 2.4 6.27512V10.1668L0.899997 11.6751C0.711586 11.8667 0.583817 12.1095 0.532664 12.3733C0.481511 12.6371 0.509244 12.9101 0.612395 13.1581C0.715546 13.4062 0.889539 13.6184 1.11262 13.7682C1.33571 13.9179 1.59798 13.9986 1.86666 14.0001H4.66666V14.2835C4.70559 15.1295 5.07829 15.9255 5.7031 16.4972C6.32791 17.0689 7.15387 17.3696 8 17.3335C8.84612 17.3696 9.67208 17.0689 10.2969 16.4972C10.9217 15.9255 11.2944 15.1295 11.3333 14.2835V14.0001H14.1333C14.402 13.9986 14.6643 13.9179 14.8874 13.7682C15.1105 13.6184 15.2844 13.4062 15.3876 13.1581C15.4907 12.9101 15.5185 12.6371 15.4673 12.3733C15.4162 12.1095 15.2884 11.8667 15.1 11.6751ZM9.66666 14.2835C9.62045 14.6843 9.42137 15.0518 9.11089 15.3095C8.80041 15.5672 8.40248 15.6952 8 15.6668C7.59751 15.6952 7.19958 15.5672 6.8891 15.3095C6.57863 15.0518 6.37955 14.6843 6.33333 14.2835V14.0001H9.66666V14.2835Z" fill="#AAAAAA"/>
</svg>
