<svg width="14" height="18" viewBox="0 0 14 18" fill="none" xmlns="http://www.w3.org/2000/svg">
<path fill-rule="evenodd" clip-rule="evenodd" d="M7 17.1111C7 17.1111 14 12.4444 14 7C14 5.14348 13.2625 3.36301 11.9497 2.05025C10.637 0.737498 8.85652 0 7 0C5.14348 0 3.36301 0.737498 2.05025 2.05025C0.737498 3.36301 0 5.14348 0 7C0 12.4444 7 17.1111 7 17.1111ZM9.33334 6.99952C9.33334 8.28818 8.28867 9.33285 7.00001 9.33285C5.71134 9.33285 4.66668 8.28818 4.66668 6.99952C4.66668 5.71085 5.71134 4.66618 7.00001 4.66618C8.28867 4.66618 9.33334 5.71085 9.33334 6.99952Z" fill="#AAAAAA"/>
</svg>
