<svg width="20" height="20" viewBox="0 0 20 20" fill="none" xmlns="http://www.w3.org/2000/svg">
    <path
        d="M5.83335 11.8166V2.49996C5.83335 2.27895 5.74556 2.06698 5.58928 1.9107C5.433 1.75442 5.22103 1.66663 5.00002 1.66663C4.77901 1.66663 4.56704 1.75442 4.41076 1.9107C4.25448 2.06698 4.16669 2.27895 4.16669 2.49996V11.8166C3.68406 11.9918 3.26707 12.3113 2.97239 12.7318C2.67771 13.1522 2.51962 13.6532 2.51962 14.1666C2.51962 14.6801 2.67771 15.181 2.97239 15.6015C3.26707 16.0219 3.68406 16.3415 4.16669 16.5166V17.5C4.16669 17.721 4.25448 17.9329 4.41076 18.0892C4.56704 18.2455 4.77901 18.3333 5.00002 18.3333C5.22103 18.3333 5.433 18.2455 5.58928 18.0892C5.74556 17.9329 5.83335 17.721 5.83335 17.5V16.5166C6.31598 16.3415 6.73297 16.0219 7.02765 15.6015C7.32233 15.181 7.48042 14.6801 7.48042 14.1666C7.48042 13.6532 7.32233 13.1522 7.02765 12.7318C6.73297 12.3113 6.31598 11.9918 5.83335 11.8166Z"
        fill="#FF7D0D" />
    <path
        d="M17.5 10.8333C17.4986 10.3175 17.3376 9.81479 17.0392 9.39407C16.7408 8.97335 16.3196 8.65522 15.8333 8.48329V2.49996C15.8333 2.27895 15.7455 2.06698 15.5893 1.9107C15.433 1.75442 15.221 1.66663 15 1.66663C14.779 1.66663 14.567 1.75442 14.4107 1.9107C14.2545 2.06698 14.1667 2.27895 14.1667 2.49996V8.48329C13.684 8.65846 13.2671 8.97798 12.9724 9.39843C12.6777 9.81888 12.5196 10.3199 12.5196 10.8333C12.5196 11.3467 12.6777 11.8477 12.9724 12.2682C13.2671 12.6886 13.684 13.0081 14.1667 13.1833V17.5C14.1667 17.721 14.2545 17.9329 14.4107 18.0892C14.567 18.2455 14.779 18.3333 15 18.3333C15.221 18.3333 15.433 18.2455 15.5893 18.0892C15.7455 17.9329 15.8333 17.721 15.8333 17.5V13.1833C16.3196 13.0114 16.7408 12.6932 17.0392 12.2725C17.3376 11.8518 17.4986 11.3491 17.5 10.8333Z"
        fill="#FF7D0D" />
    <path
        d="M12.5 4.16657C12.5013 3.70794 12.3764 3.2578 12.139 2.8654C11.9016 2.473 11.5608 2.15348 11.1539 1.94179C10.7471 1.7301 10.2899 1.63441 9.83226 1.66518C9.37466 1.69596 8.93435 1.85202 8.55951 2.11628C8.18467 2.38054 7.88975 2.74282 7.70702 3.16347C7.52429 3.58413 7.46079 4.04694 7.52348 4.50126C7.58617 4.95559 7.77263 5.38391 8.06244 5.73936C8.35226 6.09481 8.73428 6.36369 9.16667 6.51657V17.4999C9.16667 17.7209 9.25447 17.9329 9.41075 18.0892C9.56703 18.2454 9.77899 18.3332 10 18.3332C10.221 18.3332 10.433 18.2454 10.5893 18.0892C10.7455 17.9329 10.8333 17.7209 10.8333 17.4999V6.51657C11.3196 6.34464 11.7408 6.02651 12.0392 5.60579C12.3376 5.18507 12.4986 4.68235 12.5 4.16657Z"
        fill="#FF7D0D" />
</svg>
