<svg width="20" height="20" viewBox="0 0 20 20" fill="none" xmlns="http://www.w3.org/2000/svg">
<path d="M9.99999 9.16667C10.6593 9.16667 11.3037 8.97117 11.8519 8.6049C12.4001 8.23863 12.8273 7.71803 13.0796 7.10895C13.3319 6.49986 13.3979 5.82964 13.2693 5.18303C13.1407 4.53643 12.8232 3.94249 12.357 3.47631C11.8908 3.01014 11.2969 2.69267 10.6503 2.56405C10.0037 2.43543 9.33347 2.50144 8.72438 2.75374C8.11529 3.00603 7.5947 3.43327 7.22842 3.98143C6.86215 4.5296 6.66666 5.17406 6.66666 5.83333C6.66666 6.71739 7.01785 7.56524 7.64297 8.19036C8.26809 8.81548 9.11593 9.16667 9.99999 9.16667Z" fill="#AAAAAA"/>
<path d="M15 17.5002C15.221 17.5002 15.433 17.4124 15.5892 17.2561C15.7455 17.0998 15.8333 16.8878 15.8333 16.6668C15.8333 15.1197 15.2187 13.636 14.1248 12.542C13.0308 11.4481 11.5471 10.8335 9.99999 10.8335C8.45289 10.8335 6.96916 11.4481 5.8752 12.542C4.78124 13.636 4.16666 15.1197 4.16666 16.6668C4.16666 16.8878 4.25445 17.0998 4.41073 17.2561C4.56701 17.4124 4.77898 17.5002 4.99999 17.5002H15Z" fill="#AAAAAA"/>
</svg>
